<svg width="79" height="61" viewBox="0 0 79 61" fill="none" xmlns="http://www.w3.org/2000/svg">
<path d="M3.875 13.25H75.125C75.6223 13.25 76.0992 13.4475 76.4508 13.7992C76.8025 14.1508 77 14.6277 77 15.125V56.375C77 56.8723 76.8025 57.3492 76.4508 57.7008C76.0992 58.0525 75.6223 58.25 75.125 58.25H53.2373C51.6448 58.25 50.1176 57.6169 48.9922 56.4902L43.7545 51.2463C41.413 48.902 37.6145 48.8995 35.2699 51.2406L30.0068 56.4958C28.8819 57.6191 27.3571 58.25 25.7674 58.25H3.875C3.37772 58.25 2.90081 58.0525 2.54918 57.7008C2.19754 57.3492 2 56.8723 2 56.375V15.125C2 14.6277 2.19754 14.1508 2.54918 13.7992C2.90081 13.4475 3.37772 13.25 3.875 13.25Z" stroke="#FF3C00" stroke-width="4" stroke-linejoin="round"/>
<path d="M20.75 43.25C22.7391 43.25 24.6467 42.4598 26.0533 41.0533C27.4598 39.6468 28.25 37.7391 28.25 35.75C28.25 33.7609 27.4598 31.8532 26.0533 30.4467C24.6467 29.0402 22.7391 28.25 20.75 28.25C18.7608 28.25 16.8532 29.0402 15.4467 30.4467C14.0401 31.8532 13.25 33.7609 13.25 35.75C13.25 37.7391 14.0401 39.6468 15.4467 41.0533C16.8532 42.4598 18.7608 43.25 20.75 43.25V43.25ZM58.25 43.25C60.2391 43.25 62.1467 42.4598 63.5533 41.0533C64.9598 39.6468 65.75 37.7391 65.75 35.75C65.75 33.7609 64.9598 31.8532 63.5533 30.4467C62.1467 29.0402 60.2391 28.25 58.25 28.25C56.2608 28.25 54.3532 29.0402 52.9467 30.4467C51.5401 31.8532 50.75 33.7609 50.75 35.75C50.75 37.7391 51.5401 39.6468 52.9467 41.0533C54.3532 42.4598 56.2608 43.25 58.25 43.25V43.25Z" stroke="#FF3C00" stroke-width="4" stroke-linecap="round" stroke-linejoin="round"/>
<path d="M5.75003 2H73.25" stroke="#FF3C00" stroke-width="4" stroke-linecap="round" stroke-linejoin="round"/>
</svg>
