<svg width="75" height="69" viewBox="0 0 75 69" fill="none" xmlns="http://www.w3.org/2000/svg">
<rect x="2" y="2" width="70.3455" height="48.5375" rx="5" stroke="#FF3C00" stroke-width="4"/>
<path d="M55.6972 28.9947V23.7286H50.1651C49.8255 22.0804 49.1711 20.5131 48.2377 19.1128L52.161 15.1896L48.4378 11.4664L44.5145 15.3897C43.1142 14.4563 41.547 13.8018 39.8988 13.4623V7.93018H34.6326V13.4623C32.9844 13.8018 31.4171 14.4563 30.0168 15.3897L26.0936 11.4664L22.3704 15.1896L26.2937 19.1128C25.3603 20.5131 24.7059 22.0804 24.3663 23.7286H18.8342V28.9947H24.3663C24.7059 30.643 25.3603 32.2102 26.2937 33.6105L22.3704 37.5338L26.0936 41.2569L30.0168 37.3337C31.4171 38.2671 32.9844 38.9215 34.6326 39.2611V44.7932H39.8988V39.2611C41.547 38.9215 43.1142 38.2671 44.5145 37.3337L48.4378 41.2569L52.161 37.5338L48.2377 33.6105C49.1711 32.2102 49.8255 30.643 50.1651 28.9947H55.6972ZM37.2657 34.2609C35.7034 34.2609 34.1761 33.7976 32.8771 32.9296C31.5781 32.0616 30.5656 30.828 29.9678 29.3846C29.3699 27.9412 29.2135 26.3529 29.5183 24.8206C29.8231 23.2883 30.5754 21.8808 31.6801 20.7761C32.7848 19.6714 34.1923 18.919 35.7246 18.6142C37.2569 18.3094 38.8452 18.4659 40.2886 19.0638C41.732 19.6616 42.9657 20.6741 43.8336 21.9731C44.7016 23.2721 45.1649 24.7994 45.1649 26.3617C45.1628 28.456 44.3299 30.464 42.849 31.9449C41.368 33.4259 39.3601 34.2588 37.2657 34.2609Z" fill="#FF3C00"/>
<rect x="42.6248" y="52.1484" width="4.95637" height="11.8953" fill="#FF3C00"/>
<rect x="26.7644" y="52.1484" width="4.95637" height="11.8953" fill="#FF3C00"/>
<rect x="58.4851" y="64.0437" width="4.95637" height="42.6248" transform="rotate(90 58.4851 64.0437)" fill="#FF3C00"/>
</svg>
